<svg xmlns="http://www.w3.org/2000/svg" version="1.1" xmlns:xlink="http://www.w3.org/1999/xlink" xmlns:svgjs="http://svgjs.dev/svgjs" width="2000" height="1487" viewBox="0 0 2000 1487"><g transform="matrix(1,0,0,1,-1.1822430155134498,0.602024291497969)"><svg viewBox="0 0 332 247" data-background-color="#2a160c" preserveAspectRatio="xMidYMid meet" height="1487" width="2000" xmlns="http://www.w3.org/2000/svg" xmlns:xlink="http://www.w3.org/1999/xlink"><g id="tight-bounds" transform="matrix(1,0,0,1,0.1962523405752279,-0.09999999999999432)"><svg viewBox="0 0 331.60749531884954 247.2" height="247.2" width="331.60749531884954"><g><svg viewBox="0 0 331.60749531884954 247.2" height="247.2" width="331.60749531884954"><g><svg viewBox="0 0 397.4975999999999 296.31841290414434" height="247.2" width="331.60749531884954"><g><rect width="397.4975999999999" height="8.476402525258296" x="0" y="152.08811862410096" fill="#000000" opacity="1" stroke-width="0" stroke="transparent" fill-opacity="1" class="rect-qz-0" data-fill-palette-color="primary" rx="1%" id="qz-0" data-palette-color="#ffffff"></rect></g><g><rect width="397.4975999999999" height="8.476402525258296" x="0" y="171.6592888525769" fill="#000000" opacity="1" stroke-width="0" stroke="transparent" fill-opacity="1" class="rect-qz-1" data-fill-palette-color="primary" rx="1%" id="qz-1" data-palette-color="#ffffff"></rect></g><g transform="matrix(1,0,0,1,0.9887999999999693,202.32522678427054)"><svg viewBox="0 0 395.52 93.99318611987381" height="93.99318611987381" width="395.52"><g id="textblocktransform"><svg viewBox="0 0 395.52 93.99318611987381" height="93.99318611987381" width="395.52" id="textblock"><g><svg viewBox="0 0 395.52 93.99318611987381" height="93.99318611987381" width="395.52"><g transform="matrix(1,0,0,1,0,0)"><svg width="395.52" viewBox="1.5 -40.15 190.18 45.199999999999996" height="93.99318611987381" data-palette-color="#ffffff"><path d="M65.85-29.3L65.85-29.3Q68.95-29.3 68.95-30.8L68.95-30.8Q68.95-31.55 69.48-31.55 70-31.55 70-30.33 70-29.1 68.6-28.45 67.2-27.8 66.13-27.8 65.05-27.8 64.35-27.9L64.35-27.9Q57-28.85 51.75-31.1L51.75-31.1Q48.2-25.5 45.4-16.2L45.4-16.2Q44.35-12.85 42.43-8.95 40.5-5.05 38.27-2.53 36.05 0 33.15 1.6L33.15 1.6Q27.45 4.7 19.7 4.7L19.7 4.7Q13.4 4.7 7.9 1.6L7.9 1.6Q2.5-1.45 1.6-7.8L1.6-7.8Q1.5-8.65 1.5-10.33 1.5-12 2.48-15.1 3.45-18.2 6.15-19.8L6.15-19.8Q7.25-20.45 7.8-20.45L7.8-20.45Q8.7-20.45 8.6-19.6L8.6-19.6Q8.4-19.35 7.58-18.78 6.75-18.2 6-17.57 5.25-16.95 4.5-15.65L4.5-15.65Q3.2-13.45 3.2-10.7L3.2-10.7Q3.2-4.4 7.5-1L7.5-1Q9.8 0.9 12.65 1.9 15.5 2.9 18.35 2.9L18.35 2.9Q18.45 2.9 18.6 2.9L18.6 2.9Q28.95 2.65 35.6-4.6L35.6-4.6Q39.8-9.15 47.1-25.15L47.1-25.15Q49.6-30.65 50.3-31.6L50.3-31.6Q41.45-34.4 34.4-34.4 27.35-34.4 22.95-30.15L22.95-30.15Q19.4-26.75 19.4-23.05L19.4-23.05Q19.4-19 22.95-17.9L22.95-17.9Q24.2-17.55 25.23-17.55 26.25-17.55 27.58-17.93 28.9-18.3 30.13-19.48 31.35-20.65 31.98-21.8 32.6-22.95 32.5-23.55L32.5-23.55 32.5-23.65Q32.9-24 33.2-23.88 33.5-23.75 33.5-23.25L33.5-23.25Q33-19.35 29.55-17.4L29.55-17.4Q27.45-16.15 25.65-16.15 23.85-16.15 22.45-16.65L22.45-16.65Q18.35-18.1 17.25-22.2L17.25-22.2Q16.9-23.5 16.9-24.75L16.9-24.75Q16.9-27.75 18.75-30.6L18.75-30.6Q22.05-35.7 29.1-36.75L29.1-36.75Q30.7-37 32.15-37 33.6-37 35.52-36.85 37.45-36.7 40.63-35.85 43.8-35 47.13-33.88 50.45-32.75 51.1-32.55L51.1-32.55Q53.55-35.55 54.75-35.6L54.75-35.6Q55-35.7 55.43-35.7 55.85-35.7 56.1-35 56.35-34.3 55.75-34.1L55.75-34.1Q55.5-34.05 55.1-34.15L55.1-34.15Q54.8-34.35 53.88-33.52 52.95-32.7 52.5-32.15L52.5-32.15Q57.2-30.65 60.75-29.98 64.3-29.3 65.85-29.3ZM55.45-20.05L55.45-20.05Q55.45-17.8 52.6-15.8L52.6-15.8Q53.6-15.75 55.27-15.75 56.95-15.75 59.5-16L59.5-16Q59.6-15.85 59.6-15.2 59.6-14.55 59-13.28 58.4-12 57.92-11.08 57.45-10.15 57.02-9.33 56.6-8.5 56.07-7.3 55.55-6.1 55.2-5.1L55.2-5.1Q53.95-1.3 55.6-1.3L55.6-1.3Q57.7-1.3 61.8-9.65L61.8-9.65Q62.15-10.3 62.37-10.15 62.6-10 62.6-9.78 62.6-9.55 61.95-8.22 61.3-6.9 60.55-5.5 59.8-4.1 58.2-2.25L58.2-2.25Q56.3 0.05 54.55 0.05L54.55 0.05Q52.6 0.05 51.85-2.3L51.85-2.3Q51.7-2.75 51.7-3.65 51.7-4.55 52.27-6.05 52.85-7.55 54.1-9.7 55.35-11.85 55.5-12.23 55.65-12.6 55.65-12.95L55.65-12.95Q55.65-14.5 51.65-14.6L51.65-14.6 51.05-13Q47.9-4.75 45-1.95L45-1.95Q44.5-1.5 44.5-2.25L44.5-2.25Q44.5-2.4 44.6-2.6L44.6-2.6Q47.4-6.3 49.45-11.35 51.5-16.4 52.3-20.95L52.3-20.95Q52.6-22.5 53.7-22.5 54.8-22.5 55.3-21.1L55.3-21.1Q55.45-20.65 55.45-20.05ZM76.95-13.55Q76.05-12.65 74.4-9.47 72.75-6.3 72.42-4.73 72.1-3.15 72.1-2.18 72.1-1.2 72.85-1.2L72.85-1.2Q73.8-1.2 75.2-2.95L75.2-2.95Q77.25-5.5 79.25-9.6L79.25-9.6Q79.45-10.05 79.7-10.1L79.7-10.1Q80.1-10.25 80.1-9.8L80.1-9.8Q80.1-9.55 79.95-9.2L79.95-9.2Q75.35 0.1 72.2 0.1L72.2 0.1Q70.75 0.1 69.85-1.3L69.85-1.3Q69.4-2.05 69.4-3.3 69.4-4.55 69.9-6.35L69.9-6.35Q65.9 0.1 63 0.1L63 0.1Q62.2 0.1 61.55-0.4L61.55-0.4Q60.05-1.45 60.05-4L60.05-4Q60.05-8.9 64.3-13.95L64.3-13.95Q66.7-16.75 70.2-17.6L70.2-17.6Q71.15-17.85 72-17.85L72-17.85Q74.3-17.85 75.9-16.25L75.9-16.25Q76.4-15.7 76.2-15.2 76-14.7 75.35-14.8L75.35-14.8Q74.8-16.6 72.95-16.6L72.95-16.6Q70.8-16.6 67.65-13.2L67.65-13.2Q65.85-11.2 64.3-8.5L64.3-8.5Q62.35-5.25 62.35-3.3 62.35-1.35 63.6-1.35L63.6-1.35Q66.6-1.35 71.45-10.55L71.45-10.55Q72.4-12.4 73.05-13.08 73.7-13.75 74.7-13.75L74.7-13.75Q74.9-13.75 75.72-13.6 76.55-13.45 76.95-13.55L76.95-13.55ZM94.34-16.4L94.34-16.4Q88.19-5.6 88.19-2.3L88.19-2.3Q88.19-1 89.14-1L89.14-1Q91.69-1 95.99-9.65L95.99-9.65Q96.29-10.35 96.59-10.2 96.89-10.05 96.89-9.8 96.89-9.55 96.69-9.2L96.69-9.2Q94.04-3.85 92.22-1.83 90.39 0.2 88.57 0.2 86.74 0.2 85.79-1.2L85.79-1.2Q85.29-1.85 85.29-2.98 85.29-4.1 85.79-5.7 86.29-7.3 88.54-10.9L88.54-10.9Q89.09-11.8 89.09-12.33 89.09-12.85 88.24-12.85 87.39-12.85 84.99-10.6L84.99-10.6Q81.39-7.3 78.04-0.7L78.04-0.7Q77.74-0.2 77.37-0.08 76.99 0.05 75.89 0.1 74.79 0.15 74.44 0.35L74.44 0.35Q75.24-1.25 77.59-6.2L77.59-6.2Q81.79-14.95 83.09-16.2L83.09-16.2Q83.69-16.8 84.74-16.8L84.74-16.8Q84.94-16.8 85.77-16.65 86.59-16.5 86.99-16.6L86.99-16.6Q85.14-15.6 80.94-7.2L80.94-7.2Q83.29-10.1 85.22-11.83 87.14-13.55 89.84-15.03 92.54-16.5 93.79-16.5L93.79-16.5Q94.09-16.5 94.34-16.4ZM100.24-0.95L100.24-0.95Q100.89-0.85 101.14-0.85L101.14-0.85Q103.14-0.85 105.09-3.2L105.09-3.2Q106.14-4.5 108.84-9.75L108.84-9.75Q108.94-10 109.19-10L109.19-10Q109.64-10.05 109.64-9.65L109.64-9.65Q109.64-9.55 109.42-9.08 109.19-8.6 108.99-8.13 108.79-7.65 108.34-6.75 107.89-5.85 107.57-5.3 107.24-4.75 106.74-3.95 106.24-3.15 105.74-2.7L105.74-2.7 104.69-1.6Q103.84-0.75 102.69-0.4L102.69-0.4Q100.84 0.2 99.09-0.3L99.09-0.3Q97.94 0.2 97.04 0.2L97.04 0.2Q93.49 0.2 92.74-2.6L92.74-2.6Q92.59-3.25 92.59-4.17 92.59-5.1 93.22-5.95 93.84-6.8 94.54-6.85L94.54-6.85Q97.09-11.7 98.89-15.6L98.89-15.6Q100.89-19.85 103.54-19.85L103.54-19.85Q104.24-19.85 104.92-19.53 105.59-19.2 105.42-18.8 105.24-18.4 104.69-18.65 104.14-18.9 103.74-18.9 103.34-18.9 103.04-18.75L103.04-18.75Q101.34-17.95 101.34-15.3L101.34-15.3Q101.34-13.9 101.74-13 102.14-12.1 102.64-11.05L102.64-11.05Q103.79-8.45 103.79-6.8L103.79-6.8Q103.79-5.15 102.74-3.55 101.69-1.95 100.24-0.95ZM98.54-1.3L98.54-1.3Q100.74-3 100.74-6.8L100.74-6.8Q100.74-8.35 100.39-11.05 100.04-13.75 100.04-14.7 100.04-15.65 100.09-16L100.09-16Q96.29-8.4 95.39-6.75L95.39-6.75Q96.44-6.75 96.44-5.25L96.44-5.25Q96.44-2.3 98.54-1.3ZM94.79-2.65L94.79-2.65Q94.79-2.35 94.84-2L94.84-2Q95.24-0.65 96.69-0.65L96.69-0.65Q97.29-0.65 97.69-0.85L97.69-0.85Q95.84-2 95.69-4.6L95.69-4.6Q94.79-3.7 94.79-2.65ZM124.89 5.05L124.89 5.05Q120.99 5.05 117.41 3.53 113.84 2 111.71-0.95 109.59-3.9 109.14-7.4L109.14-7.4Q108.94-8.9 108.94-10.7 108.94-12.5 109.39-15.45 109.84-18.4 111.36-21.85 112.89-25.3 114.99-27.95L114.99-27.95Q114.14-31.3 114.14-34.13 114.14-36.95 114.79-39.4L114.79-39.4Q114.89-39.8 115.11-39.98 115.34-40.15 115.44-40.15L115.44-40.15Q115.94-40.15 115.74-38.93 115.54-37.7 115.54-35.43 115.54-33.15 116.19-29.65L116.19-29.65Q120.19-34.8 125.59-37.15L125.59-37.15Q129.74-38.95 134.29-38.95L134.29-38.95Q135.59-38.95 136.99-38.8L136.99-38.8Q144.69-37.95 147.39-32.9L147.39-32.9Q148.49-30.8 148.49-28.55 148.49-26.3 147.44-23.9L147.44-23.9Q145.24-19.1 139.89-16.8L139.89-16.8Q136.44-15.3 132.34-15.3L132.34-15.3Q130.59-15.3 128.79-15.55L128.79-15.55Q119.84-16.85 116.39-24.05L116.39-24.05Q115.19-22.35 113.91-18.35 112.64-14.35 112.44-12.2 112.24-10.05 112.24-8.6 112.24-7.15 112.44-5.6L112.44-5.6Q112.79-2.85 114.54-0.63 116.29 1.6 119.21 2.48 122.14 3.35 124.29 3.35L124.29 3.35Q131.24 3.35 136.14 0.45L136.14 0.45Q139.09-1.3 140.76-3.53 142.44-5.75 144.34-9.65L144.34-9.65Q144.64-10.3 144.96-10.1 145.29-9.9 144.94-9.15L144.94-9.15Q143.04-5.3 141.41-3.05 139.79-0.8 136.99 1.15L136.99 1.15Q131.39 5.05 124.89 5.05ZM117.39-25.65L117.39-25.65Q120.94-16.6 132.19-16.6L132.19-16.6Q138.54-16.6 142.36-20.15 146.19-23.7 146.19-28.2 146.19-32.7 142.29-35.2L142.29-35.2Q139.39-37.05 135.14-37.05 130.89-37.05 126.59-34.6L126.59-34.6Q121.19-31.45 117.39-25.65ZM153.19-2.25L153.19-2.25Q153.19-0.85 154.19-0.85L154.19-0.85Q156.53-0.85 160.84-9.65L160.84-9.65Q161.19-10.35 161.46-10.2 161.74-10.05 161.74-9.8 161.74-9.55 161.16-8.38 160.59-7.2 160.01-6.13 159.44-5.05 158.34-3.3L158.34-3.3Q156.03 0.2 153.44 0.2L153.44 0.2Q151.74 0.2 150.74-1.2L150.74-1.2Q150.28-1.85 150.28-2.98 150.28-4.1 150.78-5.7 151.28-7.3 153.53-10.9L153.53-10.9Q154.09-11.8 154.09-12.33 154.09-12.85 153.24-12.85 152.38-12.85 149.99-10.6L149.99-10.6Q146.38-7.3 142.99-0.7L142.99-0.7Q142.63 0.05 141.13 0.05L141.13 0.05Q139.78 0.15 139.44 0.35L139.44 0.35Q148.94-19.4 153.19-27.2L153.19-27.2Q154.13-28.95 154.86-29.65 155.59-30.35 156.59-30.35L156.59-30.35Q156.84-30.35 157.63-30.23 158.44-30.1 158.84-30.15L158.84-30.15Q157.34-28.6 153.46-21.58 149.59-14.55 146.03-7.3L146.03-7.3Q148.38-10.25 150.26-11.9 152.13-13.55 154.84-15.03 157.53-16.5 158.78-16.5L158.78-16.5Q159.09-16.5 159.34-16.4L159.34-16.4Q153.19-5.6 153.19-2.25ZM176.08-13.55Q175.18-12.65 173.53-9.47 171.88-6.3 171.56-4.73 171.23-3.15 171.23-2.18 171.23-1.2 171.98-1.2L171.98-1.2Q172.93-1.2 174.33-2.95L174.33-2.95Q176.38-5.5 178.38-9.6L178.38-9.6Q178.58-10.05 178.83-10.1L178.83-10.1Q179.23-10.25 179.23-9.8L179.23-9.8Q179.23-9.55 179.08-9.2L179.08-9.2Q174.48 0.1 171.33 0.1L171.33 0.1Q169.88 0.1 168.98-1.3L168.98-1.3Q168.53-2.05 168.53-3.3 168.53-4.55 169.03-6.35L169.03-6.35Q165.03 0.1 162.13 0.1L162.13 0.1Q161.33 0.1 160.68-0.4L160.68-0.4Q159.18-1.45 159.18-4L159.18-4Q159.18-8.9 163.43-13.95L163.43-13.95Q165.83-16.75 169.33-17.6L169.33-17.6Q170.28-17.85 171.13-17.85L171.13-17.85Q173.43-17.85 175.03-16.25L175.03-16.25Q175.53-15.7 175.33-15.2 175.13-14.7 174.48-14.8L174.48-14.8Q173.93-16.6 172.08-16.6L172.08-16.6Q169.93-16.6 166.78-13.2L166.78-13.2Q164.98-11.2 163.43-8.5L163.43-8.5Q161.48-5.25 161.48-3.3 161.48-1.35 162.73-1.35L162.73-1.35Q165.73-1.35 170.58-10.55L170.58-10.55Q171.53-12.4 172.18-13.08 172.83-13.75 173.83-13.75L173.83-13.75Q174.03-13.75 174.86-13.6 175.68-13.45 176.08-13.55L176.08-13.55ZM177.13-4L177.13-4Q177.13-8.15 181.13-17.9L181.13-17.9 178.53-17.9Q178.28-17.9 178.21-18.18 178.13-18.45 178.25-18.73 178.38-19 178.63-19L178.63-19 181.63-19Q183.43-22.95 184.98-25.6 186.53-28.25 187.83-29.18 189.13-30.1 189.71-30.1 190.28-30.1 190.53-30L190.53-30Q191.68-29.45 191.68-27.73 191.68-26 190.53-23.55 189.38-21.1 188.28-19L188.28-19 190.68-19Q190.93-19 191-18.73 191.08-18.45 190.96-18.18 190.83-17.9 190.58-17.9L190.58-17.9 187.68-17.9Q184.93-13.25 181.03-9.65L181.03-9.65 179.88-4.55Q179.73-3.9 179.73-3.28 179.73-2.65 180.08-2 180.43-1.35 181.18-1.35L181.18-1.35Q182.03-1.35 183.08-1.95L183.08-1.95Q185.48-3.75 188.38-9.5L188.38-9.5Q188.58-9.95 188.85-10.05 189.13-10.15 189.18-9.93 189.23-9.7 189.03-9.2L189.03-9.2Q187.38-5.75 186.43-4.3L186.43-4.3Q183.73 0.05 180.68 0.05L180.68 0.05Q179.13 0.05 178.13-1.1 177.13-2.25 177.13-4ZM184.68-19L187.18-19Q190.48-24.9 190.48-27.2L190.48-27.2Q190.48-28.2 190.13-28.2L190.13-28.2Q189.58-28.2 188.46-26.6 187.33-25 184.68-19L184.68-19ZM186.53-17.9L186.53-17.9 184.18-17.9Q183.58-16.5 181.48-11.25L181.48-11.25Q184.18-14.05 186.53-17.9Z" opacity="1" transform="matrix(1,0,0,1,0,0)" fill="#000000" class="wordmark-text-0" data-fill-palette-color="primary" id="text-0"></path></svg></g></svg></g></svg></g></svg></g><g transform="matrix(1,0,0,1,127.30457923028388,0)"><svg viewBox="0 0 142.88844153943216 129.89858321766562" height="129.89858321766562" width="142.88844153943216"><g><svg xmlns="http://www.w3.org/2000/svg" xmlns:xlink="http://www.w3.org/1999/xlink" version="1.1" x="0" y="0" viewBox="6 8 89.1 81" enable-background="new 0 0 100 100" xml:space="preserve" height="129.89858321766562" width="142.88844153943216" class="icon-icon-0" data-fill-palette-color="accent" id="icon-0"><g fill="#ffffff" data-fill-palette-color="accent"><polygon points="6,89 95.1,89 95.1,16.1 54.6,16.1 54.6,24.2 87,24.2 87,80.899 14.1,80.899 14.1,56.601 6,56.601  " fill="#000000" data-fill-palette-color="accent"></polygon><path d="M46.5 8L46.5 8h-8.101H14.4 6l0 0v24.3 8.1h8.4 7.799v8.1H30.3v8.101h8.1V48.5v-8.1H46.5v-8.1V16.099l0 0V8zM38.399 32.3h-8.1-8.101H14.4V16.099h23.999V32.3z" fill="#000000" data-fill-palette-color="accent"></path></g></svg></g></svg></g><g></g></svg></g></svg></g><defs></defs></svg><rect width="331.60749531884954" height="247.2" fill="none" stroke="none" visibility="hidden"></rect></g></svg></g></svg>